HIERARCHY
ROOT Hips
{
    OFFSET 0.0 0.0 0.0
    CHANNELS 6 Xposition Yposition Zposition Zrotation Xrotation Yrotation
    JOINT Spine
    {
        OFFSET 0.0 23.62685613583908 0.0
        CHANNELS 3 Zrotation Xrotation Yrotation
        JOINT Chest
        {
            OFFSET 0.0 23.62685613583908 0.0
            CHANNELS 3 Zrotation Xrotation Yrotation
            JOINT Head
            {
                OFFSET 0.0 16.638637207558187 0.0
                CHANNELS 3 Zrotation Xrotation Yrotation
            }
            JOINT LeftUpperArm
            {
                OFFSET 15.008654479910897 0.0 0.0
                CHANNELS 3 Zrotation Xrotation Yrotation
                JOINT LeftLowerArm
                {
                    OFFSET 24.028201968306064 0.0 0.0
                    CHANNELS 3 Zrotation Xrotation Yrotation
                    JOINT LeftHand
                    {
                        OFFSET 19.81288162568095 0.0 0.0
                        CHANNELS 3 Zrotation Xrotation Yrotation
                    }
                    End Site
                    {
                    OFFSET 6.788249480795721 0.0 0.0
                    }
                }
            }
            JOINT RightUpperArm
            {
                OFFSET -15.008654479910897 0.0 0.0
                CHANNELS 3 Zrotation Xrotation Yrotation
                JOINT RightLowerArm
                {
                    OFFSET 24.028201968306064 0.0 0.0
                    CHANNELS 3 Zrotation Xrotation Yrotation
                    JOINT RightHand
                    {
                        OFFSET 19.81288162568095 0.0 0.0
                        CHANNELS 3 Zrotation Xrotation Yrotation
                    }
                    End Site
                    {
                    OFFSET 6.788249480795721 0.0 0.0
                    }
                }
            }
        }
    }
    JOINT LeftUpperLeg
    {
        OFFSET 9.73245296943076 0.0 0.0
        CHANNELS 3 Zrotation Xrotation Yrotation
        JOINT LeftLowerLeg
        {
            OFFSET 36.027957300159 0.0 0.0
            CHANNELS 3 Zrotation Xrotation Yrotation
            JOINT LeftFootAnkle
            {
                OFFSET 41.088631111747375 0.0 0.0
                CHANNELS 3 Zrotation Xrotation Yrotation
                End Site
                {
                OFFSET 10.947042967277829 0.0 0.0
                }
            }
        }
    }
    JOINT RightUpperLeg
    {
        OFFSET -9.73245296943076 0.0 0.0
        CHANNELS 3 Zrotation Xrotation Yrotation
        JOINT RightLowerLeg
        {
            OFFSET 36.027957300159 0.0 0.0
            CHANNELS 3 Zrotation Xrotation Yrotation
            JOINT RightFootAnkle
            {
                OFFSET 41.088631111747375 0.0 0.0
                CHANNELS 3 Zrotation Xrotation Yrotation
                End Site
                {
                OFFSET 10.947042967277829 0.0 0.0
                }
            }
        }
    }
}
MOTION
Frames: 12
Frame Time: 0.03333333333333333
0.14192843541167494 -0.22469277688177894 0.09042051129145695 4.755227783181252 -12.473828346101557 163.307945558905 -5.53812852244187 -1.6805001939066022 9.353426267154216 -5.17213811326626 -2.63761302304405 9.481690812780354 4.859336209914598 -4.415683224865734 137.38859880395106 139.0355990270474 -47.66032515317287 -170.9203689981308 179.90916350050745 -0.01083721011444058 96.80348529667796 1.8248665684425418 -29.969508672595722 -12.157572135096528 93.20564135979083 77.80249721255845 176.15968878116288 -107.80703029663769 58.90026968183993 105.37806053470531 -160.1813706468619 -18.78291942904878 101.35246453536799 118.30875366032723 -37.336154799933674 -153.81223314175477 -173.28143745611328 -12.580311277134568 180.0 -90.01209511680372 -23.812074505335385 180.0 -87.58611511662777 -8.18482597333176 -18.024931785574594 -170.8834838872671 -28.97032637021244 180.0 -46.66502376174294 39.966480614226924 180.0
0.14724199904133398 -0.22826854632595328 0.08752222033412302 5.255639560831595 -11.499199567211507 164.11073466250036 -4.502120882530299 -1.7363027409685594 9.985149697182235 -4.11648519478538 -2.5518288775063303 10.100434007945807 -0.21619943067549469 -5.732252765670753 136.92559943308316 139.0236499122637 -37.94681676081665 -163.53567961168372 -176.89846672690933 0.8940016139051576 106.06384853045532 12.32036523264212 -22.687829524698554 -5.561206924365646 83.04283973498386 44.97469315061976 -173.80007385963603 -62.65813402664315 46.073820195291425 69.57430104183206 -160.95540940726815 0.1730261710717521 123.01295797989465 118.25835508195283 -40.36209365030327 -153.9331703125838 -168.33423115094294 8.368202623278064 180.0 -85.76923925124507 -17.806523321582123 180.0 -89.80745727375304 -15.204565574112848 -23.05130397541488 -169.34893537394578 42.11207006621632 180.0 152.95275767467697 65.43889260525758 -0.0
0.15519118639608628 -0.2342866741548958 0.08239002354846633 6.091177328597506 -8.478799255994822 165.31728152031485 -3.0953020176237933 -2.0617737829072107 11.436440657702038 -2.609657428832084 -2.681259262365383 11.543663291229347 -3.4512492742916123 -4.251439713514447 134.38951404262005 140.0311650529378 -39.79803821584719 -161.39440816796684 -172.94412888521006 3.588415826495935 116.82423544945343 16.226553433269373 -7.261355704776512 0.42785515460703333 84.04266894128953 48.63322160256035 -176.37786894580148 -63.07655076149877 49.86725142835626 68.78013027952531 -179.81853703376112 -6.1132305084474154 132.98139341803966 115.88695786052784 -49.03357202507125 -158.4284325287082 -163.70696664563704 26.0251570055121 180.0 -81.34769223396721 -10.45945620715726 180.0 -91.28685496365479 -19.34888741582706 -20.089697621549053 -168.9353760858754 20.90091683892975 180.0 160.84770585737294 72.93385940126623 -0.0
0.15502090965181173 -0.2351853450140987 0.07535826088382609 7.063214042533639 -5.079104322090405 167.9538346261739 -2.3602578903323455 -2.298987394469744 11.986138749167456 -1.8170177339339844 -2.778739200199639 12.084908933005313 -4.159720086326725 -0.24355903834355794 130.81557686427357 136.31871716853857 -45.78668527941857 -166.18718575471075 -170.64996026199717 5.210653273037127 118.87980809587391 13.503100164915214 -7.30859012107331 2.4630670922790254 88.26545234265241 54.80044351858417 179.53054537972767 -77.98250816146844 51.08932586754871 80.59469131078393 -171.3926405199738 -3.783320942475364 136.87837586565564 109.62183033959337 -50.000493919376666 -164.7136560311615 -164.5400194556168 30.707198072137892 180.0 -82.49158597603763 -7.07736332852888 180.0 -92.03275987808873 -22.810860085604855 -17.017534198146347 11.447126857456153 33.257792823897134 -0.0 -32.110365027930236 -77.22247308744436 -179.99999999999994
0.1617365185557557 -0.23089671400736175 0.08223186062719295 6.589387418037238 -6.306081675638986 169.32720749340325 -2.440291291304313 -2.042134834683515 10.761086463006741 -2.0043826345473774 -2.498652185118776 10.848592400356944 -4.465883627716621 -2.07387872604317 131.26154498526003 134.38794237240742 -43.35789186860906 -166.63717512859662 -174.95520382917468 3.2621928600634265 122.80683240256849 15.525084102449384 -14.309063447659927 -1.5522406206375199 83.92378803621642 46.00553367058449 -175.01536184703295 -57.68406685524517 45.90181332070857 65.56893219999124 -170.5264268080683 -5.976981701837257 143.46642928987208 107.08666144966618 -52.50440088119734 -167.39997315022765 -164.4019393325948 32.84754270922445 180.0 -85.10185443984446 -6.519492845812288 180.0 -97.21581750102497 -33.11303637426154 -18.82652964922855 12.812751800853649 59.07525357446804 -0.0 -50.52327577773957 -67.67732558746243 180.0
0.15787222323772654 -0.2255029034909877 0.07624211281471942 5.735641548064928 -6.20793813119443 169.78268584214322 -2.1306479490230235 -1.9165040299588414 10.877702243648256 -1.7217347531731406 -2.3118292593102816 10.950358668227945 -6.658249129884658 -3.408840034357558 131.5378757281351 128.68123488549347 -39.42728466777971 -168.794328991103 -176.78661875117604 2.3337411637675913 125.95318757924787 15.260246283887836 -15.92702517794605 -1.4031046583029114 83.96806479660354 49.42101668477093 -176.13709975988778 -65.36188200410207 45.83496867829741 71.78882079181194 -168.11915995185205 1.2657295860415807 142.8206825806435 104.65446203546846 -44.200756262696295 -168.3934191552202 -168.26294461983764 24.448155864607646 180.0 -89.44346558571881 -5.805688506472411 180.0 -97.1300916749991 -29.360842089010266 -17.800221361580082 12.86897820999833 52.67441036546956 -0.0 -42.73213181826913 -73.32306861097288 180.0
0.16150463088673586 -0.22504843961981025 0.0761079904175353 5.353309287426221 -6.665039637084002 169.47916589969034 -2.159473661171871 -1.8985022309676207 10.714788320379865 -1.7599393343144438 -2.2949177939597147 10.787375612689349 -8.14870121471546 -5.295958034803154 132.49544735779477 126.53014801779366 -32.13129112666661 -169.78618766288304 179.2778329131568 -0.4270320883577105 120.59512667947476 14.614105172036131 -25.497068010634095 -4.185932445885589 82.49598784651641 45.72540788167633 -173.94734988334156 -61.21032776472321 40.642876731989105 70.30641404125883 -160.72448757146745 10.164095760601676 137.95395034066632 104.67856250932601 -40.64311333039201 -167.56212306298377 -168.52982206132376 19.388097892835688 180.0 -91.10247349303637 -7.579630076882555 180.0 -97.6881247724176 -28.50037920326745 -18.17699298786502 13.249843692107456 47.36967395494247 -0.0 -31.851971583974354 -80.08279938978924 180.0
0.16807678282127494 -0.22796939334615907 0.07520369241811757 5.288228141732481 -6.870935980949309 169.13020373624312 -2.1096266726535435 -1.8895989246938558 10.760128765484135 -1.7111299604102725 -2.277175484267043 10.830958239767982 -9.71418463993596 -7.014600246764879 132.95750918313357 127.18323159124486 -27.334614758517922 -168.39626306549226 179.08668684161387 -0.4846658866309581 117.95116047421617 14.454259337714998 -32.94643140548184 -7.386414054424677 81.90645882599364 37.799629809613144 -173.16848103053815 -50.98562778474866 23.821255263764513 71.88049812193869 -151.45940282463303 15.549930342730189 145.69562261591807 105.51768403998132 -42.42068100412361 -167.63239285045478 -167.44896521967257 22.913803143177425 180.0 -90.28024539051492 -7.605563375948686 180.0 -95.9240951434975 -25.418218310426536 -16.750499493494523 13.050002812219736 33.20836927167037 -0.0 -34.0583582332291 -69.04485085212278 180.0
0.16939740549643975 -0.2370010241437316 0.07709122606680045 4.419769972329389 -7.349458822580771 168.894760442097 -1.9929125306916207 -1.8824709001712276 11.2248122803513 -1.5802713238217692 -2.258446959000033 11.292279974190912 -10.111116344895398 -7.200051715429144 130.8658788632988 131.22166116251324 -31.240198670428494 -162.95112429607397 -179.17979142785785 0.5295036283481558 122.84299649124561 9.45024742237683 -28.644485502420313 -7.888304446136613 79.87810189494735 35.56786664411373 -172.47451840912396 -48.45350127672583 21.57007617426944 71.95481988361203 -149.72228542080276 4.960665798703009 153.7657510070545 107.86816732956676 -48.801574733084685 -165.53342015080105 -164.9295519433945 27.436049306074853 180.0 -89.08426583943692 -8.733452880291358 180.0 -98.40533046266734 -30.427089506636108 -17.190141786190164 14.705340036584952 -30.876749390062038 -0.0 -14.124091269140527 -25.480864776213302 180.0
0.1737342235083523 -0.23722785319176035 0.07802232142424245 3.90409716106487 -8.038231771068778 168.63598474894846 -2.036701122100562 -2.1567781192982305 11.79971124066833 -1.5417862928131048 -2.5579393850709122 11.880801922128256 -10.930833487764414 -6.7064710996388195 129.48159129606373 128.6847782821732 -27.549909506886998 -162.90612818964487 177.78263261338344 -1.6170165027338754 126.08418173178391 14.464911099015268 -22.1691039971682 -3.152446467724494 80.57363333226974 37.61390899430025 -172.49374889776314 -52.16890592795928 21.700343911496216 73.97959500659736 -157.06823655977615 3.1825138787973786 155.36953703220408 103.9830806373688 -52.22008676174722 -169.72301915392092 -164.61934051008004 40.17280823594709 180.0 -89.68427266591321 -2.264202207435915 180.0 -98.16306395836497 -29.236728936000503 -16.038352215465192 14.627163782711438 -68.35939735104566 -0.0 -64.42041049157987 3.278069084409807 180.0
0.18461017963106474 -0.2356661888128161 0.07152066971433178 4.011646509123168 -7.829624773028 168.04465234251506 -1.8250698095499485 -2.2065761736559324 11.570370547087496 -1.3352932303816787 -2.5562544942538623 11.646436565446026 -11.471073040057577 -6.166598174134459 130.1514307211092 124.30505167238888 -26.683671912421325 -165.03019662017064 173.68114604743275 -5.793931277583844 132.35391219414737 16.465228295987053 -34.18569526438843 -10.555585681326264 83.67037436524963 49.98896759474114 -178.2081147875413 -54.07024515433229 15.642415156472529 78.94398721395697 -145.89069512500114 7.208306977698136 146.50113632355462 105.83020599174566 -57.351643467324955 -168.1740932067025 -163.1290548390607 40.828608293562475 180.0 -95.90607193276921 -5.139787575757198 180.0 -96.65022553322288 -28.606232808575687 -13.472900650900636 -164.73692167753953 -83.01782872806092 180.0 -81.87207594368455 22.53718636209543 180.0
0.19570234737554512 -0.22988670314060952 0.08198115019766873 2.809468138694307 -12.394826265987769 166.89998048098823 -2.121925608865362 -1.6229432401472055 9.404083512067688 -1.8218362840696603 -1.9710787448944227 9.463314718648565 -5.774430525878567 -6.891605008404719 132.61262455004515 122.63452538004536 -19.700361600306287 -160.72179750319665 166.5078592581399 -12.637587417403303 132.36010833022343 8.052600747127926 -38.64587006410211 -20.317920524863812 76.40825114605894 52.94089647340902 -170.67909606583387 -49.411998880038354 9.439154722726867 82.00198285229425 -134.89108885008514 -0.14563977615986662 144.3784179034767 116.85107793705896 -64.47287300792559 -156.82142496306355 -156.15985501554854 34.86757010597082 180.0 -110.83325177010123 -18.614057846331225 180.0 -104.83793507673334 -40.79768342348788 -21.825386225644316 -161.2649366092664 -80.88551844478403 180.0 -97.95778287819867 35.338235932174534 180.0
